<?xml version="1.0" encoding="utf-8"?>
<!-- Generator: Adobe Illustrator 23.0.4, SVG Export Plug-In . SVG Version: 6.00 Build 0)  -->
<svg version="1.1" id="Layer_1" xmlns="http://www.w3.org/2000/svg" xmlns:xlink="http://www.w3.org/1999/xlink" x="0px" y="0px"
	 viewBox="0 0 512 512" style="enable-background:new 0 0 512 512;" xml:space="preserve">
<style type="text/css">
	.st0{fill:#347B7B;}
	.st1{fill:#214A79;}
</style>
<g>
	<path class="st0" d="M351.3,55.7L124.5,275.5c37-0.1,73.3,5.2,107.7,15.3l180.9-175.3L351.3,55.7z"/>
	<path class="st1" d="M282.2,311.6c26.9,12.4,52.6,27.7,76.5,45.5l106.2-103l-61.6-60L282.2,311.6z"/>
	<path class="st1" d="M335.8,456.3h105.9c-14-19.2-29.7-37.4-47.1-54.4c-48.7-47.5-107.2-82.2-170.8-102.5l0.1,0
		c0,0-49.1-15.2-107.4-15.8L47,351c8.5-0.6,17.1-0.9,25.7-0.9C175.4,350.2,268.4,390.7,335.8,456.3 M220.5,299.3l2.6,0.2l0.5,0.2
		L220.5,299.3z"/>
</g>
</svg>
